<?xml version="1.0" encoding="utf-8"?>
<!-- Generator: Adobe Illustrator 24.0.2, SVG Export Plug-In . SVG Version: 6.00 Build 0)  -->
<svg version="1.1"
	 id="svg2" inkscape:output_extension="org.inkscape.output.svg.inkscape" inkscape:version="0.47 r22583" sodipodi:docname="Logo_der_Schweizerischen_Eidgenossenschaft.svg" sodipodi:version="0.32" xmlns:cc="http://creativecommons.org/ns#" xmlns:dc="http://purl.org/dc/elements/1.1/" xmlns:inkscape="http://www.inkscape.org/namespaces/inkscape" xmlns:rdf="http://www.w3.org/1999/02/22-rdf-syntax-ns#" xmlns:sodipodi="http://sodipodi.sourceforge.net/DTD/sodipodi-0.dtd" xmlns:svg="http://www.w3.org/2000/svg"
	 xmlns="http://www.w3.org/2000/svg" xmlns:xlink="http://www.w3.org/1999/xlink" x="0px" y="0px" viewBox="0 0 714.4 177.8"
	 style="enable-background:new 0 0 714.4 177.8;" xml:space="preserve">
<style type="text/css">
	.st0{fill:#FF0000;}
	.st1{fill:#FFFFFF;}
</style>
<sodipodi:namedview  bordercolor="#666666" borderopacity="1.0" gridtolerance="10.0" guidetolerance="10.0" id="base" inkscape:current-layer="svg2" inkscape:cx="395.21173" inkscape:cy="90.460025" inkscape:pageopacity="0.0" inkscape:pageshadow="2" inkscape:window-height="749" inkscape:window-maximized="0" inkscape:window-width="1366" inkscape:window-x="-4" inkscape:window-y="-4" inkscape:zoom="0.68823868" objecttolerance="10.0" pagecolor="#ffffff" showgrid="false">
	</sodipodi:namedview>
<defs>
	
		<inkscape:perspective  id="perspective233" inkscape:persp3d-origin="395.21173 : 85.00177 : 1" inkscape:vp_x="0 : 127.50266 : 1" inkscape:vp_y="0 : 1000 : 0" inkscape:vp_z="790.42346 : 127.50266 : 1" sodipodi:type="inkscape:persp3d">
		</inkscape:perspective>
	
		<inkscape:perspective  id="perspective2708" inkscape:persp3d-origin="372.04724 : 350.78739 : 1" inkscape:vp_x="0 : 526.18109 : 1" inkscape:vp_y="0 : 1000 : 0" inkscape:vp_z="744.09448 : 526.18109 : 1" sodipodi:type="inkscape:persp3d">
		</inkscape:perspective>
</defs>
<path id="path2943" d="M137.9,31.2c1.4,0.9,3,1.4,5.3,1.4c2.9,0,5.4-1.5,5.4-4.9c0-4.7-10.9-5.3-10.9-11.5c0-3.8,3.4-6.2,7.6-6.2
	c1.2,0,3,0.2,4.7,0.8l-0.4,2.2c-1.1-0.6-2.7-0.9-4.3-0.9c-2.5,0-5.2,1-5.2,4.1c0,4.8,10.9,4.8,10.9,11.8c0,4.8-4.1,6.7-7.8,6.7
	c-2.3,0-4.1-0.5-5.4-1L137.9,31.2"/>
<path id="path2945" d="M169.4,19.1c-1.2-0.5-2.6-0.9-3.7-0.9c-4.2,0-6.6,3-6.6,7.3c0,4,2.4,7.3,6.3,7.3c1.4,0,2.6-0.3,3.9-0.8l0.2,2
	c-1.5,0.5-2.8,0.6-4.5,0.6c-5.6,0-8.3-4.3-8.3-9.1c0-5.4,3.5-9.1,8.6-9.1c2.1,0,3.6,0.5,4.2,0.7L169.4,19.1"/>
<path id="path2947" d="M175.9,8.6h2.2v11.1h0.1c0.9-1.9,2.9-3.4,5.4-3.4c4.7,0,5.9,3.1,5.9,7.4v10.4h-2.2V23.8c0-3-0.6-5.6-4.1-5.6
	c-3.8,0-5.2,3.6-5.2,6.7v9.3h-2.2V8.6"/>
<path id="path2949" d="M215.5,34.2h-2.6l-4.8-15.1h-0.1l-4.8,15.1h-2.6l-5.6-17.4h2.4l4.6,15.1h0.1l4.9-15.1h2.6l4.6,15.1h0.1
	l4.8-15.1h2.2L215.5,34.2"/>
<path id="path2951" d="M237.5,24.3c0-3-1.2-6.1-4.4-6.1c-3.2,0-5.1,3.2-5.1,6.1H237.5z M238.6,33.7c-1.5,0.6-3.5,1-5.1,1
	c-5.8,0-7.9-3.9-7.9-9.1c0-5.3,2.9-9.1,7.3-9.1c4.9,0,6.9,4,6.9,8.6v1.1h-11.9c0,3.7,2,6.7,5.7,6.7c1.6,0,3.9-0.6,4.9-1.3V33.7"/>
<path id="path2953" d="M246.6,16.8h2.2v17.4h-2.2V16.8z M248.8,12.1h-2.2V9.3h2.2V12.1"/>
<path id="path2955" d="M255.3,32.4l10.5-13.8h-10.1v-1.8h12.6v1.8l-10.5,13.7h10.5v1.8h-13V32.4"/>
<path id="path2957" d="M285.4,24.3c0-3-1.2-6.1-4.4-6.1c-3.2,0-5.1,3.2-5.1,6.1H285.4z M286.4,33.7c-1.5,0.6-3.5,1-5.1,1
	c-5.8,0-7.9-3.9-7.9-9.1c0-5.3,2.9-9.1,7.4-9.1c4.9,0,6.9,4,6.9,8.6v1.1h-11.9c0,3.7,2,6.7,5.7,6.7c1.6,0,3.9-0.6,4.9-1.3V33.7"/>
<path id="path2959" d="M294.5,20.7c0-1.9,0-2.6-0.1-3.9h2.2v3.4h0.1c0.8-1.9,2.3-3.8,4.5-3.8c0.5,0,1.1,0.1,1.5,0.2v2.3
	c-0.4-0.1-1-0.2-1.6-0.2c-3.4,0-4.3,3.8-4.3,7v8.6h-2.2V20.7"/>
<path id="path2961" d="M308.5,16.8h2.2v17.4h-2.2V16.8z M310.7,12.1h-2.2V9.3h2.2V12.1"/>
<path id="path2963" d="M317.5,31.7c1.3,0.6,2.9,1.1,4.5,1.1c2.1,0,3.9-1.1,3.9-3.1c0-4.1-8.4-3.5-8.4-8.5c0-3.5,2.8-4.8,5.7-4.8
	c0.9,0,2.8,0.2,4.3,0.8l-0.2,1.9c-1.1-0.5-2.7-0.8-3.9-0.8c-2.2,0-3.8,0.7-3.8,2.9c0,3.2,8.6,2.8,8.6,8.5c0,3.7-3.5,5-6.1,5
	c-1.7,0-3.4-0.2-4.9-0.8L317.5,31.7"/>
<path id="path2965" d="M346.1,19.1c-1.2-0.5-2.6-0.9-3.7-0.9c-4.2,0-6.6,3-6.6,7.3c0,4,2.4,7.3,6.3,7.3c1.4,0,2.6-0.3,3.9-0.8l0.2,2
	c-1.5,0.5-2.8,0.6-4.5,0.6c-5.6,0-8.3-4.3-8.3-9.1c0-5.4,3.5-9.1,8.6-9.1c2.1,0,3.6,0.5,4.2,0.7L346.1,19.1"/>
<path id="path2967" d="M352.6,8.6h2.2v11.1h0.1c0.9-1.9,2.9-3.4,5.4-3.4c4.7,0,5.9,3.1,5.9,7.4v10.4h-2.2V23.8c0-3-0.6-5.6-4.1-5.6
	c-3.8,0-5.2,3.6-5.2,6.7v9.3h-2.2V8.6"/>
<path id="path2969" d="M384.9,24.3c0-3-1.2-6.1-4.4-6.1c-3.2,0-5.1,3.2-5.1,6.1H384.9z M386,33.7c-1.5,0.6-3.5,1-5.1,1
	c-5.8,0-7.9-3.9-7.9-9.1c0-5.3,2.9-9.1,7.4-9.1c4.9,0,6.9,4,6.9,8.6v1.1h-11.9c0,3.7,2,6.7,5.7,6.7c1.6,0,3.9-0.6,4.9-1.3V33.7"/>
<path id="path2971" d="M405.4,10.4h11.7v2.1h-9.3v8.5h8.9V23h-8.9v9.2h9.7v2.1h-12.1V10.4"/>
<path id="path2973" d="M425,16.8h2.2v17.4H425V16.8z M427.1,12.1H425V9.3h2.2V12.1"/>
<path id="path2975" d="M441.7,32.8c3.8,0,5.2-4.1,5.2-7.3c0-3.2-1.3-7.3-5.2-7.3c-4.1,0-5.2,3.9-5.2,7.3
	C436.5,28.9,437.6,32.8,441.7,32.8z M449,34.2h-2.2v-2.8h-0.1c-1.2,2.2-2.9,3.2-5.4,3.2c-4.8,0-7.2-4-7.2-9.1c0-5.3,2.1-9.1,7.2-9.1
	c3.4,0,5.1,2.5,5.4,3.4h0.1V8.6h2.2V34.2"/>
<path id="path2977" d="M463.2,32.4c3.9,0,5.3-3.7,5.3-6.9c0-4.2-1.2-7.3-5.2-7.3c-4.1,0-5.2,3.9-5.2,7.3
	C458.2,28.9,459.6,32.4,463.2,32.4z M470.7,32.8c0,4.9-2.2,8.8-8.2,8.8c-2.3,0-4.4-0.6-5.3-0.9l0.2-2.2c1.3,0.7,3.2,1.2,5.1,1.2
	c5.5,0,6-4,6-9h-0.1c-1.2,2.5-3.1,3.4-5.3,3.4c-5.6,0-7.4-4.9-7.4-8.7c0-5.3,2.1-9.1,7.2-9.1c2.3,0,3.8,0.3,5.4,2.4h0.1v-2h2.2V32.8
	"/>
<path id="path2979" d="M489.2,24.3c0-3-1.2-6.1-4.4-6.1c-3.2,0-5.1,3.2-5.1,6.1H489.2z M490.2,33.7c-1.5,0.6-3.5,1-5.1,1
	c-5.8,0-7.9-3.9-7.9-9.1c0-5.3,2.9-9.1,7.3-9.1c4.9,0,6.9,4,6.9,8.6v1.1h-11.9c0,3.7,2,6.7,5.7,6.7c1.6,0,3.9-0.6,4.9-1.3V33.7"/>
<path id="path2981" d="M498.3,20.9c0-1.3,0-2.7-0.1-4.1h2.1v3.1h0.1c0.7-1.6,2-3.5,5.6-3.5c4.3,0,5.9,2.9,5.9,6.7v11.1h-2.2V23.6
	c0-3.3-1.2-5.4-4.1-5.4c-3.9,0-5.2,3.5-5.2,6.4v9.6h-2.2V20.9"/>
<path id="path2983" d="M526.8,32.8c3.8,0,5.8-3.2,5.8-7.3c0-4-2-7.3-5.8-7.3c-3.8,0-5.8,3.2-5.8,7.3C521,29.5,523,32.8,526.8,32.8z
	 M526.8,16.4c5.6,0,8.1,4.4,8.1,9.1s-2.5,9.1-8.1,9.1c-5.6,0-8.1-4.4-8.1-9.1S521.2,16.4,526.8,16.4"/>
<path id="path2985" d="M540.3,31.7c1.3,0.6,2.9,1.1,4.5,1.1c2.1,0,3.9-1.1,3.9-3.1c0-4.1-8.4-3.5-8.4-8.5c0-3.5,2.8-4.8,5.7-4.8
	c0.9,0,2.8,0.2,4.3,0.8l-0.2,1.9c-1.1-0.5-2.7-0.8-3.9-0.8c-2.2,0-3.8,0.7-3.8,2.9c0,3.2,8.6,2.8,8.6,8.5c0,3.7-3.5,5-6.1,5
	c-1.7,0-3.3-0.2-4.9-0.8L540.3,31.7"/>
<path id="path2987" d="M556.3,31.7c1.3,0.6,2.9,1.1,4.5,1.1c2.1,0,3.9-1.1,3.9-3.1c0-4.1-8.4-3.5-8.4-8.5c0-3.5,2.8-4.8,5.7-4.8
	c0.9,0,2.8,0.2,4.3,0.8l-0.2,1.9c-1.1-0.5-2.7-0.8-3.9-0.8c-2.2,0-3.8,0.7-3.8,2.9c0,3.2,8.6,2.8,8.6,8.5c0,3.7-3.5,5-6.1,5
	c-1.7,0-3.3-0.2-4.9-0.8L556.3,31.7"/>
<path id="path2989" d="M584.2,24.3c0-3-1.2-6.1-4.4-6.1c-3.2,0-5.1,3.2-5.1,6.1H584.2z M585.3,33.7c-1.5,0.6-3.4,1-5.1,1
	c-5.8,0-7.9-3.9-7.9-9.1c0-5.3,2.9-9.1,7.3-9.1c4.9,0,6.9,4,6.9,8.6v1.1h-11.9c0,3.7,2,6.7,5.7,6.7c1.6,0,3.9-0.6,4.9-1.3V33.7"/>
<path id="path2991" d="M593.4,20.9c0-1.3,0-2.7-0.1-4.1h2.1v3.1h0.1c0.7-1.6,2-3.5,5.6-3.5c4.3,0,5.9,2.9,5.9,6.7v11.1h-2.2V23.6
	c0-3.3-1.2-5.4-4.1-5.4c-3.9,0-5.2,3.5-5.2,6.4v9.6h-2.2V20.9"/>
<path id="path2993" d="M613.7,31.7c1.3,0.6,2.9,1.1,4.5,1.1c2.1,0,3.9-1.1,3.9-3.1c0-4.1-8.4-3.5-8.4-8.5c0-3.5,2.8-4.8,5.7-4.8
	c0.9,0,2.8,0.2,4.3,0.8l-0.2,1.9c-1.1-0.5-2.7-0.8-3.9-0.8c-2.2,0-3.8,0.7-3.8,2.9c0,3.2,8.6,2.8,8.6,8.5c0,3.7-3.5,5-6.1,5
	c-1.7,0-3.4-0.2-4.9-0.8L613.7,31.7"/>
<path id="path2995" d="M642.3,19.1c-1.2-0.5-2.6-0.9-3.7-0.9c-4.2,0-6.6,3-6.6,7.3c0,4,2.4,7.3,6.3,7.3c1.4,0,2.6-0.3,3.9-0.8l0.2,2
	c-1.5,0.5-2.8,0.6-4.5,0.6c-5.6,0-8.3-4.3-8.3-9.1c0-5.4,3.5-9.1,8.6-9.1c2.1,0,3.6,0.5,4.2,0.7L642.3,19.1"/>
<path id="path2997" d="M648.8,8.6h2.2v11.1h0.1c0.9-1.9,2.9-3.4,5.4-3.4c4.7,0,6,3.1,6,7.4v10.4h-2.2V23.8c0-3-0.6-5.6-4.1-5.6
	c-3.8,0-5.2,3.6-5.2,6.7v9.3h-2.2V8.6"/>
<path id="path2999" d="M680.3,25.4h-0.6c-3.7,0-8.2,0.4-8.2,4.2c0,2.3,1.6,3.1,3.6,3.1c5.1,0,5.2-4.4,5.2-6.3V25.4z M680.5,31.4
	L680.5,31.4c-1,2.1-3.5,3.2-5.6,3.2c-5,0-5.7-3.4-5.7-4.9c0-5.8,6.2-6.1,10.7-6.1h0.4v-0.9c0-3-1.1-4.5-4-4.5
	c-1.8,0-3.5,0.4-5.1,1.4v-2.1c1.3-0.6,3.6-1.2,5.1-1.2c4.3,0,6.1,1.9,6.1,6.5v7.7c0,1.4,0,2.5,0.2,3.7h-2.1V31.4"/>
<path id="path3001" d="M691.7,18.6h-3.5v-1.8h3.5v-1.3c0-3.7,0.1-7.4,4.6-7.4c0.7,0,1.6,0.1,2,0.3l-0.1,1.9
	c-0.4-0.2-1.1-0.4-1.7-0.4c-2.9,0-2.6,3.2-2.6,5.3v1.5h3.9v1.8h-3.9v15.6h-2.2V18.6"/>
<path id="path3003" d="M711.8,18.6h-4v11.3c0,1.6,0.6,2.9,2.3,2.9c0.8,0,1.4-0.2,2-0.4l0.1,1.8c-0.5,0.2-1.6,0.5-2.6,0.5
	c-3.8,0-4-2.6-4-5.8V18.6h-3.4v-1.8h3.4v-4.2l2.2-0.8v5h4V18.6"/>
<path id="path3005" d="M154.7,60.2c-1.5-0.8-3.7-1-5.3-1c-6.2,0-9.7,4.4-9.7,10.3c0,6,3.4,10.3,9.7,10.3c1.6,0,4-0.2,5.3-1l0.1,2.1
	c-1.3,0.8-4,1-5.5,1c-7.5,0-12-5-12-12.3c0-7.2,4.6-12.3,12-12.3c1.4,0,4.2,0.2,5.5,0.9L154.7,60.2"/>
<path id="path3007" d="M169.5,79.9c3.8,0,5.8-3.2,5.8-7.3c0-4-2-7.3-5.8-7.3c-3.8,0-5.8,3.2-5.8,7.3
	C163.7,76.7,165.7,79.9,169.5,79.9z M169.5,63.5c5.6,0,8.1,4.4,8.1,9.1c0,4.8-2.5,9.1-8.1,9.1c-5.6,0-8.1-4.4-8.1-9.1
	C161.3,67.9,163.8,63.5,169.5,63.5"/>
<path id="path3009" d="M184.3,68c0-1.3,0-2.7-0.1-4.1h2.1v3.1h0.1c0.7-1.6,2-3.5,5.6-3.5c4.3,0,5.9,2.9,5.9,6.7v11.1h-2.2V70.8
	c0-3.3-1.2-5.4-4.1-5.4c-3.9,0-5.2,3.5-5.2,6.4v9.6h-2.2V68"/>
<path id="path3011" d="M207.5,65.8H204v-1.8h3.5v-1.3c0-3.7,0.1-7.4,4.6-7.4c0.7,0,1.6,0.1,2,0.3l-0.1,1.9c-0.4-0.2-1.1-0.4-1.7-0.4
	c-2.9,0-2.6,3.2-2.6,5.3v1.5h3.9v1.8h-3.9v15.6h-2.2V65.8"/>
<path id="path3013" d="M227.1,57.2h2.7l-4.3,4.9h-1.6L227.1,57.2z M230.7,71.4c0-3-1.2-6.1-4.4-6.1c-3.2,0-5.1,3.2-5.1,6.1H230.7z
	 M231.8,80.8c-1.5,0.6-3.5,1-5.1,1c-5.8,0-7.9-3.9-7.9-9.1c0-5.3,2.9-9.1,7.4-9.1c4.9,0,6.9,4,6.9,8.6v1.1h-11.9
	c0,3.7,2,6.7,5.7,6.7c1.6,0,3.9-0.6,4.9-1.3V80.8"/>
<path id="path3015" d="M246.3,79.9c3.8,0,5.2-4.1,5.2-7.3c0-3.2-1.3-7.3-5.2-7.3c-4.1,0-5.2,3.9-5.2,7.3
	C241.2,76,242.2,79.9,246.3,79.9z M253.6,81.4h-2.2v-2.8h-0.1c-1.2,2.2-2.9,3.2-5.4,3.2c-4.8,0-7.2-4-7.2-9.1c0-5.3,2.1-9.1,7.2-9.1
	c3.4,0,5.1,2.5,5.4,3.4h0.1V55.7h2.2V81.4"/>
<path id="path3017" d="M268.5,57.2h2.7l-4.3,4.9h-1.6L268.5,57.2z M272.1,71.4c0-3-1.2-6.1-4.4-6.1c-3.2,0-5.1,3.2-5.1,6.1H272.1z
	 M273.2,80.8c-1.5,0.6-3.5,1-5.1,1c-5.8,0-7.9-3.9-7.9-9.1c0-5.3,2.9-9.1,7.4-9.1c4.9,0,6.9,4,6.9,8.6v1.1h-11.9
	c0,3.7,2,6.7,5.7,6.7c1.6,0,3.9-0.6,4.9-1.3V80.8"/>
<path id="path3019" d="M281.3,67.8c0-1.9,0-2.6-0.1-3.9h2.2v3.4h0.1c0.8-1.9,2.3-3.8,4.5-3.8c0.5,0,1.1,0.1,1.5,0.2V66
	c-0.4-0.1-1-0.2-1.6-0.2c-3.4,0-4.3,3.8-4.3,7v8.6h-2.2V67.8"/>
<path id="path3021" d="M305.1,72.6h-0.6c-3.7,0-8.2,0.4-8.2,4.2c0,2.3,1.6,3.1,3.6,3.1c5.1,0,5.2-4.4,5.2-6.3V72.6z M305.3,78.6
	L305.3,78.6c-1,2.1-3.5,3.2-5.6,3.2c-5,0-5.7-3.4-5.7-4.9c0-5.8,6.2-6.1,10.7-6.1h0.4v-0.9c0-3-1.1-4.5-4-4.5
	c-1.8,0-3.5,0.4-5.1,1.4v-2.1c1.3-0.6,3.6-1.2,5.1-1.2c4.3,0,6.1,1.9,6.1,6.5v7.7c0,1.4,0,2.5,0.2,3.7h-2.1V78.6"/>
<path id="path3023" d="M322.6,65.8h-4v11.3c0,1.6,0.6,2.9,2.3,2.9c0.8,0,1.4-0.2,2-0.4l0.1,1.8c-0.5,0.2-1.6,0.5-2.6,0.5
	c-3.8,0-4-2.6-4-5.8V65.8h-3.4v-1.8h3.4v-4.2l2.2-0.8v5h4V65.8"/>
<path id="path3025" d="M329.1,63.9h2.2v17.4h-2.2V63.9z M331.3,59.3h-2.2v-2.9h2.2V59.3"/>
<path id="path3027" d="M346.2,79.9c3.8,0,5.8-3.2,5.8-7.3c0-4-2-7.3-5.8-7.3c-3.8,0-5.8,3.2-5.8,7.3
	C340.4,76.7,342.4,79.9,346.2,79.9z M346.2,63.5c5.6,0,8.1,4.4,8.1,9.1c0,4.8-2.5,9.1-8.1,9.1c-5.6,0-8.1-4.4-8.1-9.1
	C338,67.9,340.5,63.5,346.2,63.5"/>
<path id="path3029" d="M361.1,68c0-1.3,0-2.7-0.1-4.1h2.1v3.1h0.1c0.7-1.6,2-3.5,5.6-3.5c4.3,0,5.9,2.9,5.9,6.7v11.1h-2.2V70.8
	c0-3.3-1.2-5.4-4.1-5.4c-3.9,0-5.2,3.5-5.2,6.4v9.6h-2.2V68"/>
<path id="path3031" d="M393.2,78.9c1.3,0.6,2.9,1.1,4.5,1.1c2.1,0,3.9-1.1,3.9-3.1c0-4.1-8.4-3.5-8.4-8.5c0-3.5,2.8-4.8,5.7-4.8
	c0.9,0,2.8,0.2,4.3,0.8l-0.2,1.9c-1.1-0.5-2.7-0.8-3.9-0.8c-2.2,0-3.8,0.7-3.8,2.9c0,3.2,8.6,2.8,8.6,8.5c0,3.7-3.5,5-6.1,5
	c-1.7,0-3.4-0.2-4.9-0.8L393.2,78.9"/>
<path id="path3033" d="M424.1,77.3c0,1.3,0,2.7,0.1,4.1h-2.1v-3.1h-0.1c-0.7,1.6-2,3.5-5.6,3.5c-4.3,0-5.9-2.9-5.9-6.7V63.9h2.2
	v10.6c0,3.3,1.2,5.4,4.1,5.4c3.9,0,5.2-3.5,5.2-6.4v-9.6h2.2V77.3"/>
<path id="path3035" d="M432.2,63.9h2.2v17.4h-2.2V63.9z M434.4,59.3h-2.2v-2.9h2.2V59.3"/>
<path id="path3037" d="M441.1,78.9c1.3,0.6,2.9,1.1,4.5,1.1c2.1,0,3.9-1.1,3.9-3.1c0-4.1-8.4-3.5-8.4-8.5c0-3.5,2.8-4.8,5.7-4.8
	c0.9,0,2.8,0.2,4.3,0.8l-0.2,1.9c-1.1-0.5-2.7-0.8-3.9-0.8c-2.2,0-3.8,0.7-3.8,2.9c0,3.2,8.6,2.8,8.6,8.5c0,3.7-3.5,5-6.1,5
	c-1.7,0-3.4-0.2-4.9-0.8L441.1,78.9"/>
<path id="path3039" d="M457.1,78.9c1.3,0.6,2.9,1.1,4.6,1.1c2.1,0,3.9-1.1,3.9-3.1c0-4.1-8.4-3.5-8.4-8.5c0-3.5,2.8-4.8,5.7-4.8
	c0.9,0,2.8,0.2,4.3,0.8l-0.2,1.9c-1.1-0.5-2.7-0.8-3.9-0.8c-2.2,0-3.8,0.7-3.8,2.9c0,3.2,8.6,2.8,8.6,8.5c0,3.7-3.5,5-6.1,5
	c-1.7,0-3.4-0.2-4.9-0.8L457.1,78.9"/>
<path id="path3041" d="M485,71.4c0-3-1.2-6.1-4.4-6.1c-3.2,0-5.1,3.2-5.1,6.1H485z M486.1,80.8c-1.5,0.6-3.5,1-5.1,1
	c-5.8,0-7.9-3.9-7.9-9.1c0-5.3,2.9-9.1,7.3-9.1c4.9,0,6.9,4,6.9,8.6v1.1h-11.9c0,3.7,2,6.7,5.7,6.7c1.6,0,3.9-0.6,4.9-1.3V80.8"/>
<path id="path3043" d="M154.7,107.3c-1.5-0.8-3.7-1-5.3-1c-6.2,0-9.7,4.4-9.7,10.3c0,6,3.4,10.3,9.7,10.3c1.6,0,4-0.2,5.3-1l0.1,2.1
	c-1.3,0.8-4,1-5.5,1c-7.5,0-12-5-12-12.3c0-7.2,4.6-12.3,12-12.3c1.4,0,4.2,0.2,5.5,0.9L154.7,107.3"/>
<path id="path3045" d="M169.5,127.1c3.8,0,5.8-3.2,5.8-7.3c0-4-2-7.3-5.8-7.3c-3.8,0-5.8,3.2-5.8,7.3
	C163.7,123.9,165.7,127.1,169.5,127.1z M169.5,110.7c5.6,0,8.1,4.4,8.1,9.1c0,4.8-2.5,9.1-8.1,9.1c-5.6,0-8.1-4.4-8.1-9.1
	C161.3,115.1,163.8,110.7,169.5,110.7"/>
<path id="path3047" d="M184.3,115.2c0-1.3,0-2.7-0.1-4.1h2.1v3.1h0.1c0.7-1.6,2-3.5,5.6-3.5c4.3,0,5.9,2.9,5.9,6.7v11.1h-2.2v-10.6
	c0-3.3-1.2-5.4-4.1-5.4c-3.9,0-5.2,3.5-5.2,6.4v9.6h-2.2V115.2"/>
<path id="path3049" d="M207.5,112.9H204v-1.8h3.5v-1.3c0-3.7,0.1-7.4,4.6-7.4c0.7,0,1.6,0.1,2,0.3l-0.1,1.9
	c-0.4-0.2-1.1-0.4-1.7-0.4c-2.9,0-2.6,3.2-2.6,5.3v1.5h3.9v1.8h-3.9v15.6h-2.2V112.9"/>
<path id="path3051" d="M230.7,118.6c0-3-1.2-6.1-4.4-6.1c-3.2,0-5.1,3.2-5.1,6.1H230.7z M231.8,128c-1.5,0.6-3.5,1-5.1,1
	c-5.8,0-7.9-3.9-7.9-9.1c0-5.3,2.9-9.1,7.4-9.1c4.9,0,6.9,4,6.9,8.6v1.1h-11.9c0,3.7,2,6.7,5.7,6.7c1.6,0,3.9-0.6,4.9-1.3V128"/>
<path id="path3053" d="M246.3,127.1c3.8,0,5.2-4.1,5.2-7.3c0-3.2-1.3-7.3-5.2-7.3c-4.1,0-5.2,3.9-5.2,7.3
	C241.2,123.2,242.2,127.1,246.3,127.1z M253.6,128.5h-2.2v-2.8h-0.1c-1.2,2.2-2.9,3.2-5.4,3.2c-4.8,0-7.2-4-7.2-9.1
	c0-5.3,2.1-9.1,7.2-9.1c3.4,0,5.1,2.5,5.4,3.4h0.1v-11.1h2.2V128.5"/>
<path id="path3055" d="M272.1,118.6c0-3-1.2-6.1-4.4-6.1c-3.2,0-5.1,3.2-5.1,6.1H272.1z M273.2,128c-1.5,0.6-3.5,1-5.1,1
	c-5.8,0-7.9-3.9-7.9-9.1c0-5.3,2.9-9.1,7.4-9.1c4.9,0,6.9,4,6.9,8.6v1.1h-11.9c0,3.7,2,6.7,5.7,6.7c1.6,0,3.9-0.6,4.9-1.3V128"/>
<path id="path3057" d="M281.3,115c0-1.9,0-2.6-0.1-3.9h2.2v3.4h0.1c0.8-1.9,2.3-3.8,4.5-3.8c0.5,0,1.1,0.1,1.5,0.2v2.3
	c-0.4-0.1-1-0.2-1.6-0.2c-3.4,0-4.3,3.8-4.3,7v8.6h-2.2V115"/>
<path id="path3059" d="M305.1,119.8h-0.6c-3.7,0-8.2,0.4-8.2,4.2c0,2.3,1.6,3.1,3.6,3.1c5.1,0,5.2-4.4,5.2-6.3V119.8z M305.3,125.7
	L305.3,125.7c-1,2.1-3.5,3.2-5.6,3.2c-5,0-5.7-3.4-5.7-4.9c0-5.8,6.2-6.1,10.7-6.1h0.4V117c0-3-1.1-4.5-4-4.5
	c-1.8,0-3.5,0.4-5.1,1.4v-2.1c1.3-0.6,3.6-1.2,5.1-1.2c4.3,0,6.1,1.9,6.1,6.5v7.7c0,1.4,0,2.5,0.2,3.7h-2.1V125.7"/>
<path id="path3061" d="M313.5,126.7l10.5-13.8h-10.1v-1.8h12.6v1.8L316,126.7h10.5v1.8h-13V126.7"/>
<path id="path3063" d="M332.9,111.1h2.2v17.4h-2.2V111.1z M335.1,106.5h-2.2v-2.9h2.2V106.5"/>
<path id="path3065" d="M350,127.1c3.8,0,5.8-3.2,5.8-7.3c0-4-2-7.3-5.8-7.3c-3.8,0-5.8,3.2-5.8,7.3
	C344.2,123.9,346.2,127.1,350,127.1z M350,110.7c5.6,0,8.1,4.4,8.1,9.1c0,4.8-2.5,9.1-8.1,9.1c-5.6,0-8.1-4.4-8.1-9.1
	C341.8,115.1,344.3,110.7,350,110.7"/>
<path id="path3067" d="M364.9,115.2c0-1.3,0-2.7-0.1-4.1h2.1v3.1h0.1c0.7-1.6,2-3.5,5.6-3.5c4.3,0,5.9,2.9,5.9,6.7v11.1h-2.2v-10.6
	c0-3.3-1.2-5.4-4.1-5.4c-3.9,0-5.2,3.5-5.2,6.4v9.6h-2.2V115.2"/>
<path id="path3069" d="M397.2,118.6c0-3-1.2-6.1-4.4-6.1c-3.2,0-5.1,3.2-5.1,6.1H397.2z M398.2,128c-1.5,0.6-3.5,1-5.1,1
	c-5.8,0-7.9-3.9-7.9-9.1c0-5.3,2.9-9.1,7.3-9.1c4.9,0,6.9,4,6.9,8.6v1.1h-11.9c0,3.7,2,6.7,5.7,6.7c1.6,0,3.9-0.6,4.9-1.3V128"/>
<path id="path3071" d="M417.7,125.5c1.4,0.9,3,1.4,5.3,1.4c2.9,0,5.4-1.5,5.4-4.9c0-4.7-10.9-5.3-10.9-11.5c0-3.8,3.4-6.2,7.6-6.2
	c1.2,0,3,0.2,4.7,0.8l-0.4,2.2c-1.1-0.6-2.7-0.9-4.3-0.9c-2.5,0-5.2,1-5.2,4.1c0,4.8,10.9,4.8,10.9,11.8c0,4.8-4.1,6.7-7.8,6.7
	c-2.3,0-4.1-0.5-5.4-1L417.7,125.5"/>
<path id="path3073" d="M443.9,128.5h-2.5l-5.9-17.4h2.4l4.8,15.1h0.1l5.1-15.1h2.3L443.9,128.5"/>
<path id="path3075" d="M455.7,111.1h2.2v17.4h-2.2V111.1z M457.9,106.5h-2.2v-2.9h2.2V106.5"/>
<path id="path3077" d="M464.4,126.7l10.5-13.8h-10.1v-1.8h12.6v1.8l-10.5,13.7h10.5v1.8h-13V126.7"/>
<path id="path3079" d="M482.2,126.7l10.5-13.8h-10.1v-1.8h12.6v1.8l-10.5,13.7h10.5v1.8h-13V126.7"/>
<path id="path3081" d="M512.3,118.6c0-3-1.2-6.1-4.4-6.1c-3.2,0-5.1,3.2-5.1,6.1H512.3z M513.4,128c-1.5,0.6-3.4,1-5.1,1
	c-5.8,0-7.9-3.9-7.9-9.1c0-5.3,2.9-9.1,7.3-9.1c4.9,0,6.9,4,6.9,8.6v1.1h-11.9c0,3.7,2,6.7,5.7,6.7c1.6,0,3.9-0.6,4.9-1.3V128"/>
<path id="path3083" d="M521.4,115c0-1.9,0-2.6-0.1-3.9h2.2v3.4h0.1c0.8-1.9,2.3-3.8,4.5-3.8c0.5,0,1.1,0.1,1.5,0.2v2.3
	c-0.4-0.1-1-0.2-1.6-0.2c-3.4,0-4.3,3.8-4.3,7v8.6h-2.2V115"/>
<path id="path3085" d="M545.3,119.8h-0.6c-3.7,0-8.2,0.4-8.2,4.2c0,2.3,1.6,3.1,3.6,3.1c5.1,0,5.2-4.4,5.2-6.3V119.8z M545.5,125.7
	L545.5,125.7c-1,2.1-3.5,3.2-5.6,3.2c-5,0-5.7-3.4-5.7-4.9c0-5.8,6.2-6.1,10.7-6.1h0.4V117c0-3-1.1-4.5-4-4.5
	c-1.8,0-3.5,0.4-5.1,1.4v-2.1c1.3-0.6,3.6-1.2,5.1-1.2c4.3,0,6.1,1.9,6.1,6.5v7.7c0,1.4,0,2.5,0.2,3.7h-2.1V125.7"/>
<path id="path3087" d="M154.7,154.5c-1.5-0.8-3.7-1-5.3-1c-6.2,0-9.7,4.4-9.7,10.3c0,6,3.4,10.3,9.7,10.3c1.6,0,4-0.2,5.3-1l0.1,2.1
	c-1.3,0.8-4,1-5.5,1c-7.5,0-12-5-12-12.3c0-7.2,4.6-12.3,12-12.3c1.4,0,4.2,0.2,5.5,0.9L154.7,154.5"/>
<path id="path3089" d="M169.5,174.3c3.8,0,5.8-3.2,5.8-7.3c0-4-2-7.3-5.8-7.3c-3.8,0-5.8,3.2-5.8,7.3
	C163.7,171,165.7,174.3,169.5,174.3z M169.5,157.8c5.6,0,8.1,4.4,8.1,9.1c0,4.8-2.5,9.1-8.1,9.1c-5.6,0-8.1-4.4-8.1-9.1
	C161.3,162.2,163.8,157.8,169.5,157.8"/>
<path id="path3091" d="M184.3,162.4c0-1.3,0-2.7-0.1-4.1h2.1v3.1h0.1c0.7-1.6,2-3.5,5.6-3.5c4.3,0,5.9,2.9,5.9,6.7v11.1h-2.2v-10.6
	c0-3.3-1.2-5.4-4.1-5.4c-3.9,0-5.2,3.5-5.2,6.4v9.6h-2.2V162.4"/>
<path id="path3093" d="M207.5,160.1H204v-1.8h3.5V157c0-3.7,0.1-7.4,4.6-7.4c0.7,0,1.6,0.1,2,0.3l-0.1,1.9c-0.4-0.2-1.1-0.4-1.7-0.4
	c-2.9,0-2.6,3.2-2.6,5.3v1.5h3.9v1.8h-3.9v15.6h-2.2V160.1"/>
<path id="path3095" d="M230.7,165.7c0-3-1.2-6.1-4.4-6.1c-3.2,0-5.1,3.2-5.1,6.1H230.7z M231.8,175.1c-1.5,0.6-3.5,1-5.1,1
	c-5.8,0-7.9-3.9-7.9-9.1c0-5.3,2.9-9.1,7.4-9.1c4.9,0,6.9,4,6.9,8.6v1.1h-11.9c0,3.7,2,6.7,5.7,6.7c1.6,0,3.9-0.6,4.9-1.3V175.1"/>
<path id="path3097" d="M246.3,174.3c3.8,0,5.2-4.1,5.2-7.3c0-3.2-1.3-7.3-5.2-7.3c-4.1,0-5.2,3.9-5.2,7.3
	C241.2,170.4,242.2,174.3,246.3,174.3z M253.6,175.7h-2.2v-2.8h-0.1c-1.2,2.2-2.9,3.2-5.4,3.2c-4.8,0-7.2-4-7.2-9.1
	c0-5.3,2.1-9.1,7.2-9.1c3.4,0,5.1,2.5,5.4,3.4h0.1V150h2.2V175.7"/>
<path id="path3099" d="M272.1,165.7c0-3-1.2-6.1-4.4-6.1c-3.2,0-5.1,3.2-5.1,6.1H272.1z M273.2,175.1c-1.5,0.6-3.5,1-5.1,1
	c-5.8,0-7.9-3.9-7.9-9.1c0-5.3,2.9-9.1,7.4-9.1c4.9,0,6.9,4,6.9,8.6v1.1h-11.9c0,3.7,2,6.7,5.7,6.7c1.6,0,3.9-0.6,4.9-1.3V175.1"/>
<path id="path3101" d="M281.3,162.2c0-1.9,0-2.6-0.1-3.9h2.2v3.3h0.1c0.8-1.9,2.3-3.8,4.5-3.8c0.5,0,1.1,0.1,1.5,0.2v2.3
	c-0.4-0.1-1-0.2-1.6-0.2c-3.4,0-4.3,3.8-4.3,7v8.6h-2.2V162.2"/>
<path id="path3103" d="M305.1,166.9h-0.6c-3.7,0-8.2,0.4-8.2,4.2c0,2.3,1.6,3.1,3.6,3.1c5.1,0,5.2-4.4,5.2-6.3V166.9z M305.3,172.9
	L305.3,172.9c-1,2.1-3.5,3.2-5.6,3.2c-5,0-5.7-3.4-5.7-4.9c0-5.8,6.2-6.1,10.7-6.1h0.4v-0.9c0-3-1.1-4.5-4-4.5
	c-1.8,0-3.5,0.4-5.1,1.4V159c1.3-0.6,3.6-1.2,5.1-1.2c4.3,0,6.1,1.9,6.1,6.5v7.7c0,1.4,0,2.5,0.2,3.7h-2.1V172.9"/>
<path id="path3105" d="M313.5,173.9l10.5-13.8h-10.1v-1.8h12.6v1.8L316,173.8h10.5v1.8h-13V173.9"/>
<path id="path3107" d="M332.9,158.3h2.2v17.4h-2.2V158.3z M335.1,153.6h-2.2v-2.9h2.2V153.6"/>
<path id="path3109" d="M356.8,171.6c0,1.3,0,2.7,0.1,4.1h-2.1v-3.1h-0.1c-0.7,1.6-2,3.5-5.6,3.5c-4.3,0-5.9-2.9-5.9-6.7v-11.1h2.2
	v10.6c0,3.3,1.2,5.4,4.1,5.4c3.9,0,5.2-3.5,5.2-6.4v-9.6h2.2V171.6"/>
<path id="path3111" d="M364.9,162.4c0-1.3,0-2.7-0.1-4.1h2.1v3.1h0.1c0.7-1.6,2-3.5,5.6-3.5c4.3,0,5.9,2.9,5.9,6.7v11.1h-2.2v-10.6
	c0-3.3-1.2-5.4-4.1-5.4c-3.9,0-5.2,3.5-5.2,6.4v9.6h-2.2V162.4"/>
<path id="path3113" d="M397,173.2c1.3,0.6,2.9,1.1,4.5,1.1c2.1,0,3.9-1.1,3.9-3.1c0-4.1-8.4-3.5-8.4-8.5c0-3.5,2.8-4.8,5.7-4.8
	c0.9,0,2.8,0.2,4.3,0.8l-0.2,1.9c-1.1-0.5-2.7-0.8-3.9-0.8c-2.2,0-3.8,0.7-3.8,2.9c0,3.2,8.6,2.8,8.6,8.5c0,3.7-3.5,5-6.1,5
	c-1.7,0-3.4-0.2-4.9-0.8L397,173.2"/>
<path id="path3115" d="M420.4,175.7h-2.5l-5.9-17.4h2.4l4.8,15.1h0.1l5.1-15.1h2.3L420.4,175.7"/>
<path id="path3117" d="M432.2,158.3h2.2v17.4h-2.2V158.3z M434.3,153.6h-2.2v-2.9h2.2V153.6"/>
<path id="path3119" d="M440.8,173.9l10.5-13.8h-10.1v-1.8h12.6v1.8l-10.5,13.7h10.5v1.8h-13V173.9"/>
<path id="path3121" d="M460.3,162.2c0-1.9,0-2.6-0.1-3.9h2.2v3.3h0.1c0.8-1.9,2.3-3.8,4.5-3.8c0.5,0,1.1,0.1,1.5,0.2v2.3
	c-0.4-0.1-1-0.2-1.6-0.2c-3.4,0-4.3,3.8-4.3,7v8.6h-2.2V162.2"/>
<path id="path3131" d="M484.1,166.9h-0.6c-3.7,0-8.2,0.4-8.2,4.2c0,2.3,1.6,3.1,3.6,3.1c5.1,0,5.2-4.4,5.2-6.3V166.9z M484.3,172.9
	L484.3,172.9c-1,2.1-3.5,3.2-5.6,3.2c-5,0-5.7-3.4-5.7-4.9c0-5.8,6.2-6.1,10.7-6.1h0.4v-0.9c0-3-1.1-4.5-4-4.5
	c-1.8,0-3.5,0.4-5.1,1.4V159c1.3-0.6,3.6-1.2,5.1-1.2c4.3,0,6.1,1.9,6.1,6.5v7.7c0,1.4,0,2.5,0.2,3.7h-2.1V172.9"/>
<path id="path3133" class="st0" d="M98.5,9.3c0,0-18.1-7.9-48.4-7.9h0C19.9,1.4,1.8,9.3,1.8,9.3S0.2,44.4,7,64.2
	c12.1,34.9,43.1,44.7,43.1,44.7h0h0c0,0,31-9.8,43.1-44.7C100.1,44.4,98.5,9.3,98.5,9.3"/>
<path id="path3135" class="st1" d="M82.3,39.5v19.3H59.8v22.5H40.4V58.9H17.9V39.5h22.5V17h19.3l0,22.5H82.3"/>
</svg>
